<svg xmlns="http://www.w3.org/2000/svg" width="48" height="48" viewBox="0 0 48 48">
  <g id="insta" transform="translate(-1612 -4630)">
    <circle id="Ellipse_17540" data-name="Ellipse 17540" cx="24" cy="24" r="24" transform="translate(1612 4630)" fill="#363535"/>
    <path id="Path_471" data-name="Path 471" d="M15.446,0H6.554A6.561,6.561,0,0,0,0,6.554v8.892A6.561,6.561,0,0,0,6.554,22h8.892A6.561,6.561,0,0,0,22,15.446V6.554A6.561,6.561,0,0,0,15.446,0Zm4.341,15.446a4.341,4.341,0,0,1-4.341,4.341H6.554a4.341,4.341,0,0,1-4.341-4.341V6.554A4.341,4.341,0,0,1,6.554,2.213h8.892a4.341,4.341,0,0,1,4.341,4.341v8.892Z" transform="translate(1625 4643)" fill="#fff"/>
    <path id="Path_472" data-name="Path 472" d="M138.69,133a5.69,5.69,0,1,0,5.69,5.69A5.7,5.7,0,0,0,138.69,133Zm0,9.167a3.477,3.477,0,1,1,3.477-3.477A3.477,3.477,0,0,1,138.69,142.167Z" transform="translate(1497.31 4515.31)" fill="#fff"/>
    <circle id="Ellipse_17541" data-name="Ellipse 17541" cx="1.363" cy="1.363" r="1.363" transform="translate(1640.338 4646.989)" fill="#fff"/>
  </g>
</svg>
