<svg xmlns="http://www.w3.org/2000/svg" width="99.508" height="45" viewBox="0 0 99.508 45">
  <g id="logo" transform="translate(-299 -241)">
    <path id="Path_392" data-name="Path 392" d="M33.527,6.455a3.552,3.552,0,0,0-3.049,1.429L30.144,6.6H28V18.676h2.6l.05-8.735c1.81-1.977,5.286-1.723,5.119,1.588v7.147h2.478V11.529c.024-2.025,1.215-2.859,2.6-2.859,1.358,0,2.573.81,2.573,2.93v7.075h2.549V11.648c0-3.859-2.311-5.217-5.122-5.217A4.253,4.253,0,0,0,37,8.456,3.7,3.7,0,0,0,33.527,6.455ZM60.2,18.676V6.6H57.6v8.814a3.285,3.285,0,0,1-5.813-2V6.6h-2.6v6.813a5.246,5.246,0,0,0,5.479,5.455,3.667,3.667,0,0,0,3.049-1.525l.334,1.334Zm7.44-7.266c-.762-.167-1.882-.31-1.906-1.358-.024-1.1,1.12-1.429,1.906-1.429a3.578,3.578,0,0,1,2.287.905l1.429-1.6a5.05,5.05,0,0,0-3.764-1.6c-2.239,0-4.383,1.31-4.383,3.692.024,2.287,1.858,3.264,3.859,3.6.81.143,2.049.5,2.049,1.668,0,1.024-1.143,1.358-2.049,1.31a3.71,3.71,0,0,1-2.573-1.477L62.871,16.7a5.056,5.056,0,0,0,4.264,2.239c1.953,0,4.5-.953,4.5-3.716C71.638,12.863,69.685,11.791,67.636,11.41Zm9.325-6.5V2H74.317V4.906ZM74.341,6.55V18.676h2.6V6.55ZM90.647,8.313a6.167,6.167,0,0,0-4.5-1.953,6.069,6.069,0,0,0-6.265,6.289,5.988,5.988,0,0,0,6.265,6.289,6.551,6.551,0,0,0,4.6-2.049l-1.477-1.6a4.183,4.183,0,0,1-3.121,1.286A3.611,3.611,0,0,1,82.452,12.7a3.656,3.656,0,0,1,3.669-3.955,4.212,4.212,0,0,1,3.073,1.191Z" transform="translate(307.766 241.647)" fill="#fff"/>
    <path id="Path_393" data-name="Path 393" d="M19.538,0V4.682c0,5.474.017,10.966-.017,16.44a1.657,1.657,0,0,0,.965,1.687c2.806,1.55,5.559,3.2,8.338,4.82.132.086.275.189.529.361-4.132,2.393-8.16,4.717-12.394,7.161V4.528c-1.206.688-2.2,1.24-3.184,1.791C10.466,8.212,7.181,10.14,3.859,12a1.667,1.667,0,0,0-1,1.67c.034,5.888.034,11.758,0,17.646a1.465,1.465,0,0,0,.826,1.429c5.25,3.012,9.991,5.863,15.242,8.859a1.456,1.456,0,0,0,1.664,0c2.091-1.114,9.455-5.316,14.391-8.135,2.107-1.2,2.029-1.624,2.032-3.6.008-6.919-.03-20.34-.03-20.34l2.649,2.44s0,15.372.015,20.964a1.273,1.273,0,0,1-.74,1.274Q29.742,39.475,20.593,44.8a1.165,1.165,0,0,1-1.343-.017q-8.96-5.191-17.955-10.346A1.8,1.8,0,0,1,.226,32.642C.278,25.808.26,18.99.243,12.156a1.6,1.6,0,0,1,.877-1.636c5.426-3.044,10.794-6.163,16.2-9.244C18.007.877,18.695.5,19.538,0Z" transform="translate(298.78 241)" fill="#fff"/>
    <path id="Path_394" data-name="Path 394" d="M38.815,24.053c0-3.716-2.43-6.027-5.36-6.075a4.376,4.376,0,0,0-2.906.977V13.5H28V30.176l1.323-.132.844-1.154a3.583,3.583,0,0,0,3.1,1.477C36.528,30.414,38.815,27.841,38.815,24.053Zm-5.741,4.026a2.579,2.579,0,0,1-2.549-1.406V20.933a4.363,4.363,0,0,1,2.358-.691c2.358.048,3.407,1.858,3.407,4.05C36.29,26.2,35.194,28.079,33.074,28.079Zm10.762-3.931a3.66,3.66,0,0,1,3.716-3.907,3.618,3.618,0,0,1,3.692,3.907A3.659,3.659,0,0,1,47.553,28.1,3.7,3.7,0,0,1,43.837,24.149Zm10.005,0a6.3,6.3,0,0,0-12.6,0,6.3,6.3,0,0,0,12.6,0Zm6.993-1.5-2.859-4.574H54.951L59,24.125l-4.121,6.051h2.787L60.811,25.6l3.049,4.574H66.7l-4.1-6.051,4.05-6.051H63.836Z" transform="translate(307.766 245.367)" fill="#fff"/>
  </g>
</svg>
